{
  "accessors": [
    {
      "bufferView": 2,
      "componentType": 5126,
      "count": 8062,
      "max": [
        0.7659909725189209,
        -0.23817600309848785,
        0.2734740078449249
      ],
      "min": [
        -0.7659909725189209,
        -0.2691510021686554,
        -0.2644990086555481
      ],
      "type": "VEC3"
    },
    {
      "bufferView": 2,
      "byteOffset": 96744,
      "componentType": 5126,
      "count": 8062,
      "max": [
        0.9999927878379822,
        0.9999997615814209,
        1.0
      ],
      "min": [
        -0.9999873638153076,
        -1.0,
        -1.0
      ],
      "type": "VEC3"
    },
    {
      "bufferView": 3,
      "componentType": 5126,
      "count": 8062,
      "max": [
        0.9999839663505554,
        0.9999992847442627,
        0.9999733567237854,
        1.0
      ],
      "min": [
        -0.9999997615814209,
        -0.999997615814209,
        -0.9952380657196045,
        1.0
      ],
      "type": "VEC4"
    },
    {
      "bufferView": 1,
      "componentType": 5126,
      "count": 8062,
      "max": [
        0.9999989867210388,
        0.999297022819519
      ],
      "min": [
        1.4901200273698123e-08,
        0.0
      ],
      "type": "VEC2"
    },
    {
      "bufferView": 0,
      "componentType": 5125,
      "count": 46368,
      "type": "SCALAR"
    },
    {
      "bufferView": 2,
      "byteOffset": 193488,
      "componentType": 5126,
      "count": 31775,
      "max": [
        1.0,
        0.2691510021686554,
        0.32838600873947144
      ],
      "min": [
        -1.0,
        -0.24792000651359558,
        -0.32838600873947144
      ],
      "type": "VEC3"
    },
    {
      "bufferView": 2,
      "byteOffset": 574788,
      "componentType": 5126,
      "count": 31775,
      "max": [
        1.0,
        1.0,
        0.9999995231628418
      ],
      "min": [
        -1.0,
        -1.0,
        -1.0
      ],
      "type": "VEC3"
    },
    {
      "bufferView": 3,
      "byteOffset": 128992,
      "componentType": 5126,
      "count": 31775,
      "max": [
        1.0,
        0.9999983906745911,
        0.9999997019767761,
        1.0
      ],
      "min": [
        -0.9999903440475464,
        -0.9999968409538269,
        -0.9999998211860657,
        -1.0
      ],
      "type": "VEC4"
    },
    {
      "bufferView": 1,
      "byteOffset": 64496,
      "componentType": 5126,
      "count": 31775,
      "max": [
        0.9999989867210388,
        0.9997680187225342
      ],
      "min": [
        2.3841900542720396e-07,
        2.235170057929281e-07
      ],
      "type": "VEC2"
    },
    {
      "bufferView": 0,
      "byteOffset": 185472,
      "componentType": 5125,
      "count": 183258,
      "type": "SCALAR"
    }
  ],
  "asset": {
    "extras": {
      "author": "Raphael Escamilla (https://sketchfab.com/Raffey)",
      "license": "CC-BY-4.0 (http://creativecommons.org/licenses/by/4.0/)",
      "source": "https://sketchfab.com/3d-models/grey-sofa-e94e15859aff4c5ebf4791c46ab8ba42",
      "title": "Grey Sofa"
    },
    "generator": "Sketchfab-12.66.0",
    "version": "2.0"
  },
  "bufferViews": [
    {
      "buffer": 0,
      "byteLength": 918504,
      "name": "floatBufferViews",
      "target": 34963
    },
    {
      "buffer": 0,
      "byteLength": 318696,
      "byteOffset": 918504,
      "byteStride": 8,
      "name": "floatBufferViews",
      "target": 34962
    },
    {
      "buffer": 0,
      "byteLength": 956088,
      "byteOffset": 1237200,
      "byteStride": 12,
      "name": "floatBufferViews",
      "target": 34962
    },
    {
      "buffer": 0,
      "byteLength": 637392,
      "byteOffset": 2193288,
      "byteStride": 16,
      "name": "floatBufferViews",
      "target": 34962
    }
  ],
  "buffers": [
    {
      "byteLength": 2830680,
      "uri": "scene.bin"
    }
  ],
  "images": [
    {
      "uri": "textures/Mat1_baseColor.jpeg"
    },
    {
      "uri": "textures/Mat1_metallicRoughness.png"
    },
    {
      "uri": "textures/Mat1_normal.png"
    },
    {
      "uri": "textures/Mat2_baseColor.jpeg"
    },
    {
      "uri": "textures/Mat2_metallicRoughness.png"
    },
    {
      "uri": "textures/Mat2_normal.png"
    }
  ],
  "materials": [
    {
      "doubleSided": true,
      "name": "Mat1",
      "normalTexture": {
        "index": 2
      },
      "occlusionTexture": {
        "index": 1
      },
      "pbrMetallicRoughness": {
        "baseColorTexture": {
          "index": 0
        },
        "metallicRoughnessTexture": {
          "index": 1
        }
      }
    },
    {
      "doubleSided": true,
      "name": "Mat2",
      "normalTexture": {
        "index": 5
      },
      "pbrMetallicRoughness": {
        "baseColorTexture": {
          "index": 3
        },
        "metallicRoughnessTexture": {
          "index": 4
        }
      }
    }
  ],
  "meshes": [
    {
      "name": "defaultMaterial",
      "primitives": [
        {
          "attributes": {
            "NORMAL": 1,
            "POSITION": 0,
            "TANGENT": 2,
            "TEXCOORD_0": 3
          },
          "indices": 4,
          "material": 1,
          "mode": 4
        }
      ]
    },
    {
      "name": "defaultMaterial",
      "primitives": [
        {
          "attributes": {
            "NORMAL": 6,
            "POSITION": 5,
            "TANGENT": 7,
            "TEXCOORD_0": 8
          },
          "indices": 9,
          "material": 0,
          "mode": 4
        }
      ]
    }
  ],
  "nodes": [
    {
      "children": [
        1
      ],
      "matrix": [
        1.0,
        0.0,
        0.0,
        0.0,
        0.0,
        2.220446049250313e-16,
        -1.0,
        0.0,
        0.0,
        1.0,
        2.220446049250313e-16,
        0.0,
        0.0,
        0.0,
        0.0,
        1.0
      ],
      "name": "Sketchfab_model"
    },
    {
      "children": [
        2,
        4
      ],
      "matrix": [
        1.0,
        0.0,
        0.0,
        0.0,
        0.0,
        -4.371139006309477e-08,
        0.999999999999999,
        0.0,
        0.0,
        -0.999999999999999,
        -4.371139006309477e-08,
        0.0,
        0.0,
        0.0,
        0.0,
        1.0
      ],
      "name": "Collada visual scene group"
    },
    {
      "children": [
        3
      ],
      "name": "geo1"
    },
    {
      "mesh": 0,
      "name": "defaultMaterial"
    },
    {
      "children": [
        5
      ],
      "name": "geo1"
    },
    {
      "mesh": 1,
      "name": "defaultMaterial"
    }
  ],
  "samplers": [
    {
      "magFilter": 9729,
      "minFilter": 9987,
      "wrapS": 10497,
      "wrapT": 10497
    }
  ],
  "scene": 0,
  "scenes": [
    {
      "name": "Sketchfab_Scene",
      "nodes": [
        0
      ]
    }
  ],
  "textures": [
    {
      "sampler": 0,
      "source": 0
    },
    {
      "sampler": 0,
      "source": 1
    },
    {
      "sampler": 0,
      "source": 2
    },
    {
      "sampler": 0,
      "source": 3
    },
    {
      "sampler": 0,
      "source": 4
    },
    {
      "sampler": 0,
      "source": 5
    }
  ]
}
